# xmcd
#
# Track frame offsets:
#	150
#	11725
#	24964
#	35741
#	46845
#	58927
#	72608
#	84573
#	97452
#	108383
#	119742
#	131802
#	144740
#	156715
#	169591
#	183404
#	192076
#	203233
#	215960
#	226312
#	237253
#	248332
#	259612
#	270814
#	283735
#
# Disc length: 3947 seconds
#
# Revision: 0
# Processed by: cddbd v1.5.2PL0 Copyright (c) Steve Scherf et al.
# Submitted via: EasyCDDAExtractor 15.3.0.1
#
DISCID=7f0f6919
DTITLE=Various Artist - Mercury Label (B.A.C.M.)
DYEAR=1900
DGENRE=
TTITLE0=Hill Tiny - Milk Bucket Boogie
TTITLE1=Innis Louis - Better Back Up Mama
TTITLE2=Childre Lew - Ridin' On The Elevated Railroad
TTITLE3=Marvin Ken - Rotation Blues
TTITLE4=Hill Eddie - Steamboat Stomp
TTITLE5=Jackson Tommy - Black Mountain Rag
TTITLE6=Paul and Roy - Every Dog Must Have Its Day
TTITLE7=Glosson Lonnie - I'll Make A Change In Business
TTITLE8=Dowdy Toby - Rainbow
TTITLE9=Kirk Red and Judy Perkins - I Wonder Who We Think We're Foolin'
TTITLE10=King Roy - Story Of Shelly Liles
TTITLE11=Gibson Art - Honky Tonk Mama
TTITLE12=O'Dell Mac - Wild Rose Of The Mountain
TTITLE13=Burner Cliff - Lucille From Old Mobile
TTITLE14=Masters Family - That Little Old Country Church House
TTITLE15=Page Patti - I Wanna Be A Cowboy's Sweetheart
TTITLE16=Briarhopper Homer - Briarhopper Boogie
TTITLE17=Calyon Cotton - Golden Rocket
TTITLE18=Watts Jake - Too Late To Regret
TTITLE19=Story Carl - He Will Set Your Fields On Fire
TTITLE20=Hinchee Jimmie - I'm Here To Get My Baby Out Of Jail
TTITLE21=Fletcher Jimmie - I'm Changing Business All Around
TTITLE22=Lundy Charles - Lover's Farewell
TTITLE23=Owens Sheriff Tom - Freight Train Blues
TTITLE24=Thompson Sue - Last Night I Heard Somebody Cry
EXTD=
EXTT0=
EXTT1=
EXTT2=
EXTT3=
EXTT4=
EXTT5=
EXTT6=
EXTT7=
EXTT8=
EXTT9=
EXTT10=
EXTT11=
EXTT12=
EXTT13=
EXTT14=
EXTT15=
EXTT16=
EXTT17=
EXTT18=
EXTT19=
EXTT20=
EXTT21=
EXTT22=
EXTT23=
EXTT24=
PLAYORDER=
